<svg width="65" height="65" viewBox="0 0 65 65" fill="none" xmlns="http://www.w3.org/2000/svg">
<path d="M32.5 1.01562C15.1129 1.01562 1.01562 15.118 1.01562 32.5C1.01562 49.8922 15.1129 63.9844 32.5 63.9844C49.8871 63.9844 63.9844 49.8922 63.9844 32.5C63.9844 15.118 49.8871 1.01562 32.5 1.01562ZM32.5 14.9805C35.4448 14.9805 37.832 17.3677 37.832 20.3125C37.832 23.2573 35.4448 25.6445 32.5 25.6445C29.5552 25.6445 27.168 23.2573 27.168 20.3125C27.168 17.3677 29.5552 14.9805 32.5 14.9805ZM39.6094 47.2266C39.6094 48.0679 38.9273 48.75 38.0859 48.75H26.9141C26.0727 48.75 25.3906 48.0679 25.3906 47.2266V44.1797C25.3906 43.3384 26.0727 42.6562 26.9141 42.6562H28.4375V34.5312H26.9141C26.0727 34.5312 25.3906 33.8491 25.3906 33.0078V29.9609C25.3906 29.1196 26.0727 28.4375 26.9141 28.4375H35.0391C35.8804 28.4375 36.5625 29.1196 36.5625 29.9609V42.6562H38.0859C38.9273 42.6562 39.6094 43.3384 39.6094 44.1797V47.2266Z" fill="#E1E1E1"/>
</svg>
